<?xml version="1.0" encoding="iso-8859-1"?>
<svg height="800px" width="800px" version="1.1" id="Layer_1" xmlns="http://www.w3.org/2000/svg" xmlns:xlink="http://www.w3.org/1999/xlink" 
	 viewBox="0 0 512 512" xml:space="preserve">
<path style="fill:#E5E3DC;" d="M221.566,348.418h70.063c18.861,0,34.437-15.189,36.401-34.627h-32.004
	c-10.789,0-21.073,4.664-28.214,12.795c-2.835,3.227-6.921,5.077-11.216,5.077c-4.295,0-8.381-1.85-11.215-5.077
	c-7.14-8.131-17.424-12.795-28.214-12.795h-33.181C186.083,332.947,202.44,348.418,221.566,348.418z"/>
<path style="fill:#6D6459;" d="M343.165,283.941h-47.138c-14.272,0-28.045,4.537-39.429,12.755
	c-11.385-8.217-25.157-12.755-39.429-12.755h-48.333c-8.242,0-14.925,6.683-14.925,14.925v10.769c0,17.99,7.01,35.087,19.737,48.141
	c12.886,13.215,29.903,20.493,47.917,20.493h70.063c36.646,0,66.461-30.789,66.461-68.634v-10.769
	C358.09,290.624,351.407,283.941,343.165,283.941z"/>
<path style="fill:#897D70;" d="M253.811,294.801c-10.813-7.011-23.514-10.86-36.642-10.86h-48.333
	c-8.242,0-14.925,6.683-14.925,14.925v10.769c0,17.99,7.01,35.087,19.737,48.141c12.886,13.215,29.903,20.493,47.917,20.493h32.245
	v-83.468H253.811z"/>
<path style="fill:#B7A982;" d="M343.165,369.911h-47.138c-14.272,0-28.045,4.537-39.429,12.755
	c-11.385-8.217-25.157-12.755-39.429-12.755h-48.333c-8.242,0-14.925,6.683-14.925,14.925v11.404
	c0,37.495,30.35,67.999,67.656,67.999h70.063c36.646,0,66.461-30.504,66.461-67.999v-11.404
	C358.09,376.594,351.407,369.911,343.165,369.911z"/>
<path style="fill:#6D6459;" d="M343.165,46.926c-8.242,0-14.925,6.683-14.925,14.925v46.567H295.52
	c-0.153,0-0.307,0.002-0.458,0.007c-13.927,0.199-27.336,4.715-38.463,12.747c-11.127-8.032-24.538-12.548-38.466-12.747
	c-0.153-0.005-0.304-0.007-0.458-0.007h-33.913V61.852c0-8.242-6.683-14.925-14.925-14.925s-14.925,6.683-14.925,14.925v72.593
	c0,17.994,7.026,35.048,19.781,48.02c12.862,13.079,29.864,20.282,47.873,20.282h70.063c36.646,0,66.461-30.64,66.461-68.302V61.852
	C358.09,53.609,351.407,46.926,343.165,46.926z"/>
<path style="fill:#897D70;" d="M256.598,121.173c-11.127-8.032-24.538-12.548-38.466-12.747c-0.153-0.005-0.304-0.007-0.459-0.007
	h-33.913V61.852c0-8.242-6.683-14.925-14.925-14.925s-14.925,6.683-14.925,14.925v72.593c0,17.994,7.026,35.048,19.781,48.02
	c12.862,13.079,29.864,20.282,47.873,20.282h35.032v-81.574H256.598z"/>
<path style="fill:#B7A982;" d="M343.165,195.583h-47.138c-14.272,0-28.045,4.537-39.429,12.755
	c-11.385-8.217-25.157-12.755-39.429-12.755h-48.333c-8.242,0-14.925,6.683-14.925,14.925v11.532
	c0,37.424,30.35,67.871,67.656,67.871h70.063c36.646,0,66.461-30.448,66.461-67.871v-11.532
	C358.09,202.266,351.407,195.583,343.165,195.583z"/>
<g>
	<path style="fill:#CAB98E;" d="M255.404,381.838c-11.149-7.687-24.456-11.927-38.234-11.927h-48.333
		c-8.242,0-14.925,6.683-14.925,14.925v11.404c0,37.495,30.35,67.999,67.656,67.999h33.836V381.838z"/>
	<path style="fill:#CAB98E;" d="M255.404,207.51c-11.149-7.687-24.456-11.927-38.234-11.927h-48.333
		c-8.242,0-14.925,6.683-14.925,14.925v11.532c0,37.424,30.35,67.871,67.656,67.871h33.836V207.51z"/>
</g>
<path style="fill:#6D6459;" d="M256.598,512c-9.891,0-17.91-8.019-17.91-17.91V144.24c0-9.891,8.019-17.91,17.91-17.91
	c9.891,0,17.91,8.019,17.91,17.91v349.85C274.508,503.981,266.489,512,256.598,512z"/>
<path style="fill:#897D70;" d="M256.598,512c-9.891,0-17.91-8.019-17.91-17.91V144.24c0-9.891,8.019-17.91,17.91-17.91V512z"/>
<path style="fill:#B7A982;" d="M278.605,16.11l-8.383-9.824C266.818,2.297,261.839,0,256.598,0l0,0
	c-5.242,0-10.222,2.297-13.625,6.284l-8.383,9.826c-15.242,17.861-23.635,40.63-23.635,64.111c0,24.99,9.359,48.844,26.352,67.165
	l6.159,6.64c3.389,3.655,8.148,5.731,13.132,5.731c4.984,0,9.743-2.076,13.132-5.731l6.159-6.64
	c16.993-18.322,26.352-42.175,26.352-67.165C302.24,56.74,293.846,33.971,278.605,16.11z"/>
<path style="fill:#CAB98E;" d="M256.598,0L256.598,0c-5.242,0-10.221,2.297-13.624,6.284l-8.383,9.826
	c-15.242,17.861-23.635,40.63-23.635,64.111c0,24.99,9.359,48.844,26.352,67.165l6.158,6.64c3.389,3.655,8.356,5.731,13.132,5.731V0
	z"/>
</svg>